<svg id="elN0cdBDMgH1" xmlns="http://www.w3.org/2000/svg" xmlns:xlink="http://www.w3.org/1999/xlink" viewBox="0 -3 450 130" shape-rendering="geometricPrecision" text-rendering="geometricPrecision"><g id="elN0cdBDMgH2" transform="translate(.000001 0.000001)"><ellipse id="elN0cdBDMgH3" rx="1.640481" ry="1.859165" transform="matrix(0 0 0 0 358.093323 48.238452)" stroke-width="0"/><path id="elN0cdBDMgH4" d="M328.018053,39.87657Q357.378504,11.975415,341.830296,4t-53.437531,6.893503q-17.409816,6.657514-31.144638,19.110029C242.12112,43.718255,249.205465,55.088583,258.725747,60.4s30.699735,17.3,34.426652,20.2s17.349128,17.151365,3.626917,28.351608-31.204575,12.592804-34.629072,5.070598s25.469119-26.502877,39.829072-34.022206s30.441299-14.640971,48.66791-21.1c-5.672129,9.698214-3.98369,15.543108,8.266605,11s10.323827-2.622509,16.137437-6s5.069294-10.573637-3.502006-2.9c-8.860992,7.93299-4.238782,15.443145,6.50892,8.9q10.747702-6.543145,13.288284-5.204231c-5.709677,13.591929,7.680141,7.478394,10.848957-1.655742s-3.585711-7.062352-8.171743-2.640027-4.211677,12.083263,6.735661,8.1q10.947338-3.983263,16.419975-10-10.817197,18.664978-.822069,10.5c11.002678-8.988042,5.892646,1.293274,10.704445,2.4c0,0,3.515755,1.46,6.45482-5.72s2.785722-.88,14.516424-5.18" transform="translate(-.02929 0.360659)" fill="none" stroke="#000" stroke-width="3" stroke-linecap="round" stroke-linejoin="round" stroke-dashoffset="625.306363" stroke-dasharray="625.306363"/><ellipse id="elN0cdBDMgH5" rx="1.640481" ry="1.859165" transform="matrix(0 0 0 0 171.093317 48.238423)" stroke-width="0" stroke-dashoffset="11.02" stroke-dasharray="11.02"/><path id="elN0cdBDMgH6" d="M96.8,65.5c3.374686-.066667,7.776551-1.313333,9.325159-3.78s1.14-8.7-6.28-1-4.730318,12.9,1.794841,11.1q6.525159-1.8,21.060311-13c-6.340171,11.867566-6.304515,16.221188.439689,9.9s15.03388-14.284578,13.770414-5.9-3.476155,9.883668,4.029586,3s7.156418,3.2,7.156418,2.6.407164,6,7.143582-.1s11.180062-10.6,11.153373-10.6-12.873818,20.6,3.062857,12.3q15.936675-8.3,16.907115-11.7c-7.880978,14.44014-5.57965,17.212148,4.076655,7.18s11.115431-5.88,10.090761-.78-.766875,13.910771,18.68625-4" transform="translate(-.84-.024232)" fill="none" stroke="#000" stroke-width="3" stroke-linecap="round" stroke-linejoin="round" stroke-dashoffset="269.181426" stroke-dasharray="269.181426"/><path id="elN0cdBDMgH7" d="M41,50Q61.868416,28.138816,76.215065,15.128811C90.561714,2.118806,107.498335,-1.402628,94.5,30.548686s-23.972568,60.882389-39.743392,78.240602-47.447335,17.628814-48.693546.522979s29.50208-37.347226,89.750736-43.836499" transform="translate(.146202 0)" fill="none" stroke="#000" stroke-width="3" stroke-linecap="round" stroke-linejoin="round" stroke-dashoffset="351.617686" stroke-dasharray="351.617686"/></g>
</svg>
